HIERARCHY
ROOT SpineBase
{
  OFFSET 0.000000 0.000000 0.000000
  CHANNELS 6 Xposition Yposition Zposition Zrotation Xrotation Yrotation
  JOINT SpineMid
  {
    OFFSET 0.000000 29.882981 0.000000
    CHANNELS 3 Zrotation Xrotation Yrotation
    JOINT SpineShoulder
    {
      OFFSET -0.088286 22.370499 -0.830737
      CHANNELS 3 Zrotation Xrotation Yrotation
      JOINT Neck
      {
        OFFSET -0.030965 7.452302 -0.597300
        CHANNELS 3 Zrotation Xrotation Yrotation
        JOINT Head
        {
          OFFSET 5.971690 11.682152 0.605619
          CHANNELS 3 Zrotation Xrotation Yrotation
          End Site
          {
            OFFSET 0 0 0
          }
        }
      }
      JOINT ShoulderLeft
      {
        OFFSET -10.029157 -2.536934 -11.697009
        CHANNELS 3 Zrotation Xrotation Yrotation
        JOINT ElbowLeft
        {
          OFFSET -4.990484 -24.829472 -4.247919
          CHANNELS 3 Zrotation Xrotation Yrotation
          JOINT WristLeft
          {
            OFFSET 2.714483 -21.965840 -3.124593
            CHANNELS 3 Zrotation Xrotation Yrotation
            JOINT HandLeft
            {
              OFFSET 1.065041 -9.541329 0.582300
              CHANNELS 3 Zrotation Xrotation Yrotation
              JOINT HandTipLeft
              {
                OFFSET 0.307067 -6.293087 -0.279922
                CHANNELS 3 Zrotation Xrotation Yrotation
                End Site
                {
                  OFFSET 0 0 0
                }
              }
              JOINT ThumbLeft
              {
                OFFSET 2.245650 0.622957 -0.964739
                CHANNELS 3 Zrotation Xrotation Yrotation
                End Site
                {
                  OFFSET 0 0 0
                }
              }
            }
          }
        }
      }
      JOINT ShoulderRight
      {
        OFFSET 11.726823 -4.959105 6.335977
        CHANNELS 3 Zrotation Xrotation Yrotation
        JOINT ElbowRight
        {
          OFFSET -5.036625 -26.282834 -7.698143
          CHANNELS 3 Zrotation Xrotation Yrotation
          JOINT WristRight
          {
            OFFSET -11.552387 -24.491335 -5.040906
            CHANNELS 3 Zrotation Xrotation Yrotation
            JOINT HandRight
            {
              OFFSET -2.309043 -5.874363 -1.068741
              CHANNELS 3 Zrotation Xrotation Yrotation
              JOINT HandTipRight
              {
                OFFSET -6.956401 -8.254464 3.457997
                CHANNELS 3 Zrotation Xrotation Yrotation
                End Site
                {
                  OFFSET 0 0 0
                }
              }
              JOINT ThumbRight
              {
                OFFSET -6.058667 4.531083 -0.830403
                CHANNELS 3 Zrotation Xrotation Yrotation
                End Site
                {
                  OFFSET 0 0 0
                }
              }
            }
          }
        }
      }
    }
  }
  JOINT HipLeft
  {
    OFFSET -6.353531 0.770491 -6.922590
    CHANNELS 3 Zrotation Xrotation Yrotation
    JOINT KneeLeft
    {
      OFFSET -9.779525 -40.854886 10.776857
      CHANNELS 3 Zrotation Xrotation Yrotation
      JOINT AnkleLeft
      {
        OFFSET -4.896984 -37.648843 5.764879
        CHANNELS 3 Zrotation Xrotation Yrotation
        JOINT FootLeft
        {
          OFFSET -3.381663 -6.158284 -2.110658
          CHANNELS 3 Zrotation Xrotation Yrotation
          End Site
          {
            OFFSET 0 0 0
          }
        }
      }
    }
  }
  JOINT HipRight
  {
    OFFSET 5.753555 1.153798 0.656026
    CHANNELS 3 Zrotation Xrotation Yrotation
    JOINT KneeRight
    {
      OFFSET -8.734233 -38.204314 8.823047
      CHANNELS 3 Zrotation Xrotation Yrotation
      JOINT AnkleRight
      {
        OFFSET -8.367790 -40.279813 6.236465
        CHANNELS 3 Zrotation Xrotation Yrotation
        JOINT FootRight
        {
          OFFSET 11.128054 -3.131998 2.456763
          CHANNELS 3 Zrotation Xrotation Yrotation
          End Site
          {
            OFFSET 0 0 0
          }
        }
      }
    }
  }
}
MOTION
Frames: 13
Frame Time: 0.033333
25.646774 85.025266 358.069255 -0.000000 0.000000 -32.045137 -0.000000 0.000000 32.045137 -0.000000 0.000000 0.000000 -0.000000 0.000000 0.000000 0.000000 0.000000 0.000000 -0.000000 0.000000 0.000000 -0.000000 0.000000 0.000000 -0.000000 0.000000 0.000000 -0.000000 0.000000 0.000000 0.000000 0.000000 0.000000 0.000000 0.000000 0.000000 -0.000000 0.000000 0.000000 -0.000000 0.000000 0.000000 -0.000000 0.000000 0.000000 -0.000000 0.000000 0.000000 0.000000 0.000000 0.000000 0.000000 0.000000 0.000000 -0.000000 0.000000 32.045137 -0.000000 0.000000 0.000000 -0.000000 0.000000 0.000000 0.000000 0.000000 0.000000 -0.000000 0.000000 32.045137 -0.000000 0.000000 0.000000 -0.000000 0.000000 0.000000 0.000000 0.000000 0.000000
25.408832 85.039767 358.025061 -0.388529 -0.007016 -31.917941 0.326077 0.211371 31.917316 -0.000000 0.000000 0.000000 -0.000000 0.000000 0.000000 0.000000 0.000000 0.000000 -0.000000 0.000000 0.000000 1.213603 -0.704777 -0.252160 -0.450556 1.135786 0.349945 0.504422 -4.814573 -0.310799 0.000000 0.000000 0.000000 0.000000 0.000000 0.000000 -0.722003 2.584440 -0.265508 -1.656465 -2.588866 0.676411 -8.439881 1.078510 1.132618 16.621419 -1.217666 1.091600 0.000000 0.000000 0.000000 0.000000 0.000000 0.000000 0.326077 0.211371 31.917316 -1.737811 0.659517 -0.341526 24.080507 4.923958 -12.366207 0.000000 0.000000 0.000000 2.019931 0.263006 32.444033 -2.658364 1.448640 -0.803776 -1.187569 0.520289 2.521876 0.000000 0.000000 0.000000
25.167167 85.040762 358.000625 -0.754447 -0.049086 -31.814318 0.615237 0.439421 31.811635 -0.000000 0.000000 0.000000 -0.000000 0.000000 0.000000 0.000000 0.000000 0.000000 -0.000000 0.000000 0.000000 2.215670 -1.249956 -0.445138 -0.737900 2.134790 0.640000 0.718757 -8.484913 -0.491801 0.000000 0.000000 0.000000 0.000000 0.000000 0.000000 -1.179668 4.243243 -0.418902 -2.840781 -4.266997 1.029643 -14.026467 1.277982 2.085735 28.950521 -1.620347 2.264801 0.000000 0.000000 0.000000 0.000000 0.000000 0.000000 0.615237 0.439421 31.811635 -2.990512 1.153575 -0.576882 41.427875 6.111081 -22.234911 0.000000 0.000000 0.000000 3.857754 0.596795 32.800674 -4.985183 2.720035 -1.454068 -2.198591 0.867998 4.674666 0.000000 0.000000 0.000000
24.921777 85.028251 357.995945 -1.097476 -0.126169 -31.735597 0.867072 0.684538 31.729208 -0.000000 0.000000 0.000000 -0.000000 0.000000 0.000000 0.000000 0.000000 0.000000 -0.000000 0.000000 0.000000 3.031444 -1.648440 -0.590692 -0.912224 2.999558 0.874068 0.736427 -11.179150 -0.602801 0.000000 0.000000 0.000000 0.000000 0.000000 0.000000 -1.417274 5.109486 -0.493788 -3.502232 -5.148095 1.185767 -17.376079 0.806721 2.771567 37.545013 -1.247716 3.046542 0.000000 0.000000 0.000000 0.000000 0.000000 0.000000 0.867072 0.684538 31.729208 -3.746728 1.470691 -0.715462 50.565874 6.438111 -28.146516 0.000000 0.000000 0.000000 5.488733 1.001569 33.107363 -6.980397 3.789760 -1.972301 -2.987467 1.079229 6.443684 0.000000 0.000000 0.000000
24.672664 85.002233 358.011024 -1.417378 -0.238168 -31.683151 0.361535 0.546909 31.650254 0.822505 -0.036928 0.030663 -0.000000 0.000000 0.000000 0.000000 0.000000 0.000000 0.356660 -0.823323 0.107225 3.319623 -1.093477 -0.851886 -1.017617 3.724873 1.056528 0.628266 -13.015908 -0.677741 0.000000 0.000000 0.000000 0.000000 0.000000 0.000000 -1.456256 5.251310 -0.505656 -3.613525 -5.292650 1.209333 -19.112120 -0.194964 3.242207 43.021976 -0.233627 3.173468 0.000000 0.000000 0.000000 0.000000 0.000000 0.000000 1.081176 0.947014 31.671270 -4.002765 1.605141 -0.764016 53.903686 7.413924 -31.513962 0.000000 0.000000 0.000000 6.890919 1.476527 33.358567 -8.641746 4.637874 -2.377168 -3.527041 1.187326 7.826022 0.000000 0.000000 0.000000
24.419827 84.962709 358.045859 -1.713957 -0.384933 -31.658397 0.421531 0.616151 31.613978 1.031722 0.082374 0.037898 -0.000000 0.000000 0.000000 0.000000 0.000000 0.000000 0.455521 -0.856212 0.097768 3.714016 -1.189431 -0.923033 -1.089591 4.299879 1.191576 0.445563 -14.062997 -0.734671 0.000000 0.000000 0.000000 0.000000 0.000000 0.000000 -1.300020 4.679759 -0.456915 -3.170164 -4.710631 1.110812 -19.642124 -1.659939 3.588617 45.820448 1.340398 2.526420 0.000000 0.000000 0.000000 0.000000 0.000000 0.000000 1.257137 1.227039 31.639177 -3.760887 1.556095 -0.725804 52.904207 9.458695 -33.222718 0.000000 0.000000 0.000000 8.045590 2.020117 33.551219 -9.965434 5.248645 -2.684014 -3.802628 1.219052 8.825341 0.000000 0.000000 0.000000
24.158639 84.831714 358.161809 -1.981784 -0.644252 -31.490074 0.443126 0.679851 31.430664 0.438164 -0.021007 -0.020022 0.810285 0.318254 0.064029 0.000000 0.000000 0.000000 1.423152 -0.449928 0.114675 3.967180 -1.275203 -0.927675 -1.466525 4.668716 1.288849 1.281953 -13.997481 -0.669275 0.000000 0.000000 0.000000 0.000000 0.000000 0.000000 -0.481986 4.729334 -0.342568 -3.271619 -1.925708 0.024651 -17.525390 -11.297750 4.840493 45.745806 6.603302 -3.923868 0.000000 0.000000 0.000000 0.000000 0.000000 0.000000 1.353917 1.584215 31.460211 -1.089133 0.548271 -0.232761 32.459377 18.760683 -28.865026 0.000000 0.000000 0.000000 9.692297 2.760204 33.715710 -11.926207 6.205407 -3.130025 -4.159560 1.066279 9.391484 0.000000 0.000000 0.000000
23.874777 84.708072 358.203872 -2.243875 -0.793991 -31.460019 0.508642 0.662370 31.385672 0.567150 0.015642 -0.019880 0.896491 0.480474 0.070114 0.000000 0.000000 0.000000 1.853879 -0.289789 0.059905 3.804064 -1.294044 -0.893871 -1.539563 5.958992 1.427388 0.071844 -13.120219 -0.850845 0.000000 0.000000 0.000000 0.000000 0.000000 0.000000 -1.454657 4.275040 0.126147 -1.310267 -5.404548 1.317916 -15.597330 -5.774299 4.013847 44.960183 7.615554 -3.358625 0.000000 0.000000 0.000000 0.000000 0.000000 0.000000 1.500442 1.847844 31.420270 -0.000000 0.000000 0.000000 23.395520 24.654640 -27.613373 0.000000 0.000000 0.000000 9.472468 3.487546 33.468638 -11.415145 5.197041 -2.964951 -4.201576 1.426804 9.513193 0.000000 0.000000 0.000000
23.566121 84.665942 358.303290 -2.521714 -1.047669 -31.563097 0.579126 0.711343 31.470780 0.625614 0.002375 -0.025249 0.627947 1.669841 -0.364224 0.000000 0.000000 0.000000 2.096035 0.199571 -0.002669 3.617585 -1.357798 -0.788905 -1.255176 5.340732 1.357757 -0.031909 -11.979940 -0.809313 0.000000 0.000000 0.000000 0.000000 0.000000 0.000000 0.327681 -0.698994 0.562909 1.971543 -2.313027 1.034039 -13.848521 -1.900513 3.216267 36.783694 7.650911 -1.092606 0.000000 0.000000 0.000000 0.000000 0.000000 0.000000 2.024550 3.186049 31.572787 -0.870205 -0.608580 -0.088209 17.625404 22.436589 -22.196713 0.000000 0.000000 0.000000 9.348032 4.343418 33.378436 -11.127552 4.343346 -2.841718 -3.855884 1.644985 9.479002 0.000000 0.000000 0.000000
23.288532 84.692098 358.433969 -2.745289 -1.347436 -31.966655 0.576228 0.759002 31.855374 0.581162 -0.030253 -0.038930 0.871066 2.226550 -0.477809 0.000000 0.000000 0.000000 2.232516 0.835064 -0.043755 3.493676 -1.545758 -0.672532 -0.329020 5.552304 1.332007 0.737929 -12.551946 -0.761953 0.000000 0.000000 0.000000 0.000000 0.000000 0.000000 4.289220 -7.839305 1.128294 7.675538 3.363736 -1.414156 -18.406577 3.055955 2.973499 37.783536 10.472348 -0.998321 0.000000 0.000000 0.000000 0.000000 0.000000 0.000000 2.230380 3.926631 31.992737 -1.224573 -0.804352 -0.138477 17.161647 26.255615 -24.334006 0.000000 0.000000 0.000000 9.647695 5.346441 33.708378 -11.543433 4.001738 -2.905124 -2.561569 1.052364 7.397278 0.000000 0.000000 0.000000
23.093401 84.803310 358.513905 -2.817543 -1.569094 -32.696208 0.538415 0.857137 32.576567 0.502135 -0.019209 -0.047014 0.900334 2.369953 -0.473152 0.000000 0.000000 0.000000 2.371753 1.432649 -0.140745 3.699677 -1.475504 -0.522206 -0.942965 4.299096 1.256853 3.252959 -11.348302 -0.506326 0.000000 0.000000 0.000000 0.000000 0.000000 0.000000 11.378644 -19.340267 2.951723 16.172133 13.405267 -9.969472 -25.700083 9.263252 1.927942 38.711714 14.971009 -1.481630 0.000000 0.000000 0.000000 0.000000 0.000000 0.000000 2.135798 4.573740 32.691621 -1.448693 -1.128579 -0.125566 15.960511 19.874320 -19.487733 0.000000 0.000000 0.000000 8.434979 5.960150 34.087527 -10.106487 2.821794 -2.529679 -2.507381 0.986960 6.311820 0.000000 0.000000 0.000000
23.102629 84.943062 358.613783 -2.794486 -1.807348 -33.713579 0.356497 0.767079 33.584151 0.304368 -0.083929 -0.070186 1.070454 2.645014 -0.420848 0.000000 0.000000 0.000000 1.763948 1.456022 0.125145 4.884343 -0.549478 -0.736288 -1.886549 4.995151 1.322515 5.279529 -13.426776 -0.307248 0.000000 0.000000 0.000000 0.000000 0.000000 0.000000 21.601038 -31.879491 7.152284 32.581597 18.733471 -28.670292 -38.190509 15.504079 -0.459561 41.803801 21.672982 -1.752873 0.000000 0.000000 0.000000 0.000000 0.000000 0.000000 1.497698 4.926952 33.583243 -1.181379 -1.464763 0.023762 24.598353 20.995179 -25.882524 0.000000 0.000000 0.000000 7.643974 6.432288 34.928022 -9.645883 2.377279 -2.388056 -1.859360 0.940331 6.642626 0.000000 0.000000 0.000000
23.093081 85.202955 358.762165 -3.066233 -2.127433 -34.260511 0.186428 0.671866 34.103991 0.087160 -0.155913 -0.107417 1.586932 2.785334 -0.239108 0.000000 0.000000 0.000000 1.013833 2.888846 0.254835 6.218710 -0.746240 -0.584841 -2.316825 5.706794 1.341101 7.067584 -15.066763 -0.054654 0.000000 0.000000 0.000000 0.000000 0.000000 0.000000 38.067231 -42.190968 14.394529 48.361442 11.225507 -51.609077 -54.074262 23.108065 -8.542849 42.213744 28.774844 4.959778 0.000000 0.000000 0.000000 0.000000 0.000000 0.000000 0.823714 5.561915 33.916650 -2.012769 -2.039346 0.035858 37.763515 19.123910 -32.931217 0.000000 0.000000 0.000000 6.406264 6.779869 35.138335 -8.129921 1.775395 -2.020223 -3.155034 1.428651 8.445625 0.000000 0.000000 0.000000
